# xmcd
#
# Track frame offsets: 
#        150
#        15108
#        26492
#        43591
#        62819
#        82733
#        104326
#        136169
#        154336
#        176889
#        197751
#        211585
#        226827
#        259411
#        282685
#        303789
#
# Disc length: 4289 seconds
#
# Revision: 0
# Processed by: cddbd v1.5.2PL0 Copyright (c) Steve Scherf et al.
# Submitted via: ExactAudioCopy v1.0b3
#
DISCID=cf10bf10
DTITLE=浅川マキ - Long Goog-bye 1
DYEAR=2010
DGENRE=Blues
TTITLE0=1. 夜が明けたら (シングルより)・・・初CD化
TTITLE1=2. ちっちゃな時から (「MAKI LIVE」より)
TTITLE2=3. 赤い橋 (「MAKI LIVE」より)
TTITLE3=4. 放し飼い (「こぼれる黄金の砂」より)
TTITLE4=5. あなたなしで (「灯ともし頃」より)
TTITLE5=6. ガソリンアレイ (「MAKI LIVE」より)
TTITLE6=7. それはスポットライトではない (「浅川マキ ライヴ 夜」より)
TTITLE7=8. かもめ (「MAKI LIVE」より)
TTITLE8=9. 裏窓 (「裏窓」より)
TTITLE9=10.淋しさには名前がない (「浅川マキの世界」より)
TTITLE10=11.少年 (「MAKI LIVE」より)
TTITLE11=12.にぎわい (「MAKI LIVE」より)
TTITLE12=13.セント・ジェームス病院 (「裏窓」より)
TTITLE13=14.こころ隠して (「CAT NAP」より)
TTITLE14=15.こんな風に過ぎて行くのなら (「こんな風に過ぎて行くのなら」より)
TTITLE15=16.マイ・マン (「マイ・マン」より)
EXTD=
EXTT0=
EXTT1=
EXTT2=
EXTT3=
EXTT4=
EXTT5=
EXTT6=
EXTT7=
EXTT8=
EXTT9=
EXTT10=
EXTT11=
EXTT12=
EXTT13=
EXTT14=
EXTT15=
PLAYORDER=
